<svg xmlns="http://www.w3.org/2000/svg" width="24" height="24" fill="none" stroke="currentColor" stroke-linecap="round" stroke-linejoin="round" stroke-width="2" class="icon icon-tabler icons-tabler-outline icon-tabler-soup" viewBox="0 0 24 24"><path stroke="none" d="M0 0h24v24H0z"/><path d="M4 11h16a1 1 0 0 1 1 1v.5c0 1.5-2.5 5.6-4 6.5v1a1 1 0 0 1-1 1H8a1 1 0 0 1-1-1v-1c-1.7-1-4-5-4-6.5V12a1 1 0 0 1 1-1zM12 4a2.4 2.4 0 0 0-1 2 2.4 2.4 0 0 0 1 2M16 4a2.4 2.4 0 0 0-1 2 2.4 2.4 0 0 0 1 2M8 4a2.4 2.4 0 0 0-1 2 2.4 2.4 0 0 0 1 2"/></svg>